<!DOCTYPE svg PUBLIC "-//W3C//DTD SVG 1.1//EN" "http://www.w3.org/Graphics/SVG/1.1/DTD/svg11.dtd">

<!-- Uploaded to: SVG Repo, www.svgrepo.com, Transformed by: SVG Repo Mixer Tools -->
<svg width="34px" height="34px" viewBox="-153.6 -153.6 819.20 819.20" xmlns="http://www.w3.org/2000/svg" fill="#000000" stroke="#000000">

<g id="SVGRepo_bgCarrier" stroke-width="0">

<rect x="-153.6" y="-153.6" width="819.20" height="819.20" rx="409.6" fill="#332500" strokewidth="0"/>

</g>

<g id="SVGRepo_tracerCarrier" stroke-linecap="round" stroke-linejoin="round"/>

<g id="SVGRepo_iconCarrier">

<path fill="#ffdc80" d="M159.4 26.23c-51.4.6-79.6 56.3-79.3 86.97 1.5 47.3 34.2 79.4 74.8 114.8 35.4 30.8 76.1 63.2 100.9 110 .1-.1.1-.2.2-.3.1.1.1.2.2.3 24.8-46.8 65.5-79.2 100.9-110 40.6-35.4 73.3-67.5 74.8-114.8.3-30.67-27.9-86.37-79.3-86.97-38-.5-82.6 25.7-96.6 67.7-14-42-58.6-68.2-96.6-67.7zM23 375v114h466V375H23zm18 18h430v78H334v-60H41v-18z"/>

</g>

</svg>