<!DOCTYPE svg PUBLIC "-//W3C//DTD SVG 1.1//EN" "http://www.w3.org/Graphics/SVG/1.1/DTD/svg11.dtd">

<!-- Uploaded to: SVG Repo, www.svgrepo.com, Transformed by: SVG Repo Mixer Tools -->
<svg fill="#ECD09D" width="64px" height="64px" viewBox="0 0 32.00 32.00" version="1.1" xmlns="http://www.w3.org/2000/svg" stroke="#ECD09D">

<g id="SVGRepo_bgCarrier" stroke-width="0"/>

<g id="SVGRepo_tracerCarrier" stroke-linecap="round" stroke-linejoin="round"/>

<g id="SVGRepo_iconCarrier"> <title>crossed-bones</title> <path d="M29.075 23.336l-0-0c-4.118-1.4-7.647-3.581-10.69-6.36l-1.518 1.518c2.778 3.103 5.055 6.611 6.636 10.414 1.43 3.438 5.963 0.809 2.635-2.635 3.936 2.857 6.643-1.677 2.937-2.937zM15.281 13.749c-2.757-3.245-5.049-7.039-6.982-11.189-1.264-2.713-5.536-0.038-3.024 3.024-3.013-2.783-5.697 1.108-2.548 2.549 3.984 1.822 7.717 4.263 10.977 7.194l1.577-1.577zM3.084 23.304c9.798-3.33 16.262-11.086 20.776-20.776 1.264-2.713 5.536-0.038 3.024 3.024 3.013-2.783 5.697 1.108 2.548 2.549-9.146 4.183-16.973 11.629-20.776 20.776-1.43 3.439-5.963 0.809-2.635-2.635-3.936 2.857-6.643-1.677-2.937-2.937v-0z"/> </g>

</svg>